<?xml version="1.0" encoding="utf-8"?>
<!-- Generator: Adobe Illustrator 23.0.3, SVG Export Plug-In . SVG Version: 6.00 Build 0)  -->
<svg version="1.1" id="Layer_1" xmlns="http://www.w3.org/2000/svg" xmlns:xlink="http://www.w3.org/1999/xlink" x="0px" y="0px"
	 viewBox="0 0 595.28 595.28" style="enable-background:new 0 0 595.28 595.28;" xml:space="preserve">
<style type="text/css">
	.st0{fill:#27AAE1;}
	.st1{fill:#F26D79;}
	.st2{fill:#FBB040;}
	.st3{fill:#46A480;}
</style>
<g>
	<path class="st3" d="M488.98,153c-2.64-4.85-5.77-9.9-10.82-12.16c-4.14-1.86-8.9-1.52-13.41-0.97
		c-14,1.72-43.53,11.79-63.41,19.68c-1.34-0.86-2.69-1.69-4.08-2.46c-14.69-8.12-32.29-10.51-48.06-5.78
		c-0.45-0.72-1.04-1.39-1.64-1.98c-3.43-3.42-7.35-6.34-11.59-8.67c3.68-5.41,6.16-11.77,7.94-18.12
		c2.39-8.56,3.76-17.41,4.05-26.29c0.16-4.88-0.1-10.09-2.91-14.08c-5.41-7.7-7.16-7.22-14.52-13.08c-1.66-1.32-3-2.89-4.14-4.61
		c0.33,0.15,0.66,0.3,1,0.44c3.8,1.61,7.76,2.83,11.8,3.64c0.89,0.18,1.92,0.3,2.59-0.31c0.83-0.75,0.58-2.09,0.2-3.14
		C338.4,55.05,329,47.36,318.47,45.72c-0.92-2.04-1.98-3.99-3.31-5.75c-1.82-2.42-14.73-4.56-17.59-4.46
		c-2.86-0.1-15.77,2.04-17.59,4.46c-1.45,1.92-2.57,4.07-3.55,6.3c-0.18-0.24-0.38-0.47-0.59-0.68
		c-10.87,1.35-20.67,9.2-24.35,19.51c-0.38,1.05-0.63,2.4,0.2,3.14c0.67,0.61,1.71,0.49,2.59,0.31c4.04-0.81,8-2.03,11.8-3.64
		c1.15-0.49,2.29-1.03,3.39-1.63c-1.28,2.19-2.83,4.17-4.86,5.79c-7.36,5.86-9.11,5.38-14.52,13.08c-2.81,3.99-3.07,9.2-2.91,14.08
		c0.29,8.88,1.65,17.73,4.05,26.29c1.73,6.2,4.13,12.42,7.68,17.75c-4.5,2.39-8.66,5.44-12.27,9.04c-0.63,0.63-1.25,1.33-1.71,2.09
		c-15.86-4.88-33.62-2.51-48.42,5.67c-1.19,0.66-2.36,1.36-3.52,2.08c-19.86-7.83-48.68-17.61-62.46-19.3
		c-4.51-0.55-9.27-0.89-13.41,0.97c-5.04,2.26-8.17,7.31-10.82,12.16c-24.41,44.83-33.01,98.07-23.95,148.3
		c13.1-2.17,22.38-13.74,29.39-25.02c13.56-21.8,23.64-45.76,29.75-70.69c1.68-6.85,3.31-14.22,8.46-19.04
		c1.76-1.65,10-2.02,17.77-2.44c-4.67,6.85-8.57,14.34-11.62,22.17c-8.06,20.64-10.56,43.46-9.82,65.86
		c1.48,44.99,16.05,89.37,41.11,125.25c4.33,6.2,8.97,12.13,13.89,17.78c-13.62,16.92-28.56,40.45-32.26,52.46
		c-5.33,17.31-6.45,35.66-5.86,53.76c10.33-10.13,23.5-16.76,35.62-24.66c8.97-5.84,19.69-12.95,24.28-22.94
		c2.49-5.41,4.41-11.08,5.73-16.89c1.03-4.52,1.68-9.12,1.97-13.74c5.6,4.37,11.41,8.44,17.38,12.17
		c14.75,9.22,31.5,14.02,48.52,14.02h0.44c17.02,0,33.77-4.8,48.52-14.02c6.49-4.06,12.77-8.51,18.81-13.31
		c0,0.04,0.01,0.09,0.01,0.13c0.25,4.96,0.94,9.9,2.04,14.75c1.32,5.81,3.25,11.48,5.73,16.89c4.59,9.99,15.31,17.1,24.28,22.94
		c12.13,7.9,25.29,14.52,35.62,24.66c0.59-18.1-0.53-36.45-5.86-53.76c-3.77-12.23-19.17-36.38-32.99-53.36
		c4.63-5.38,9-11.02,13.1-16.89c25.06-35.88,39.62-80.26,41.11-125.25c0.74-22.4-1.77-45.22-9.82-65.86
		c-3.07-7.86-6.99-15.38-11.69-22.25c8.2,0.47,17.47,0.77,19.35,2.53c5.15,4.82,6.78,12.19,8.46,19.04
		c6.11,24.93,16.19,48.89,29.75,70.69c7.01,11.28,16.29,22.85,29.39,25.02C521.99,251.06,513.39,197.82,488.98,153z M122.94,238.27
		c-0.94,1.62-3.27,2.3-4.55,0.98c0.82,2.52,1.63,5.3,0.75,7.8c-0.88,2.49-4.34,3.9-5.86,1.8c0.72,2.84,1.44,5.91,0.5,8.68
		c-0.94,2.77-4.31,4.71-6.48,2.94c0.23,2.82,0.45,5.69-0.06,8.46c-0.51,2.78-1.88,5.5-4.15,6.9c-2.27,1.4-5.5,1.11-7.12-1.12
		c0.22,2.97,0.4,6.13-0.91,8.76s-4.72,4.22-6.91,2.42c-1.52-1.26-1.87-3.62-1.58-5.66c0.75-5.27,4.69-9.21,8.14-13.02
		c10.41-11.52,18.09-25.55,25.67-39.44c0.87,1.67,1.97,3.21,2.63,4.98C123.7,234.51,123.88,236.64,122.94,238.27z M136.96,151.01
		c-5.26,0.33-10.57,2.99-14.62,6.56c-7.97,7.04-12.54,17.12-16.03,27.16c-3.49,10.04-6.19,20.47-11.43,29.73
		c-2.75-3.64-1.25-8.81,0.36-13.08c5.02-13.32,10.05-26.65,15.07-39.97c1.72-4.57,3.62-9.38,7.47-12.4
		c3.76-2.94,8.91-3.68,13.59-2.78c2.12,0.4,4.15,1.11,6.1,2.01C138.85,148.87,138.46,150.92,136.96,151.01z M374.29,161.69
		c4.41,0.54,8.87,1.56,12.64,3.91c2.25,1.4,4.23,3.34,5.57,5.61c0.9,1.53-0.64,3.33-2.3,2.68c-4.29-1.69-9.36-1.55-13.83-0.16
		c-5.98,1.86-11.15,5.62-16.2,9.31c-7.06,5.17-14.12,10.34-21.18,15.51c-1.49-4.29,1.13-8.97,4.44-12.07
		c3.86-3.62,8.79-6.1,11.56-10.78c0.85-1.43,1.15-3.16,0.62-4.73c-0.96-2.82-3.7-3.16-6.13-3.2c-1.66-0.03-3.31,0.02-4.96,0.15
		c-1.72,0.13-2.24-2.3-0.61-2.87C353.61,161.64,364.09,160.45,374.29,161.69z M336.75,240.91c-0.3-11.4-3.27-22.88-8.93-32.7
		c-0.61-1.05,0.15-2.37,1.37-2.37h0.03c0.35,0,0.68,0.11,0.96,0.32c2.77,2.11,5.56,4.19,8.24,6.4c7.03,5.8,13.54,13.04,15.31,21.97
		c2.09,10.56-2.9,21.29-9.31,29.95c-3.94,5.33-8.47,10.23-12.62,15.39c-0.23,0.29-0.59,0.46-0.96,0.46h-0.02
		c-0.87,0-1.46-0.87-1.15-1.69C334.29,266.57,337.09,253.8,336.75,240.91z M230.6,371.82c-2.26,0.06-5.26-0.48-5.15-3.04
		c0.06-1.41,1.16-2.55,2.53-2.89c8.75-2.14,17.5-4.28,26.25-6.41c6.55-1.6,13.78-3.69,17.21-9.49c2.77-4.7,2.25-10.6,1.12-15.94
		c-0.58-2.76-1.31-5.55-1.76-8.34c-0.35-2.15,2.6-3.16,3.65-1.25c2.46,4.48,4.65,9.11,6.56,13.86c2.36,5.86,4.26,12.53,1.86,18.37
		c-3.34,8.14-13.27,11-21.97,12.36C250.88,370.61,240.75,371.53,230.6,371.82z M259.96,206.16c0.28-0.21,0.61-0.32,0.96-0.32h0.03
		c1.22,0,1.98,1.31,1.37,2.37c-5.66,9.83-8.63,21.31-8.93,32.7c-0.34,12.89,2.46,25.66,7.08,37.74c0.31,0.82-0.28,1.69-1.15,1.69
		h-0.02c-0.37,0-0.73-0.17-0.96-0.46c-4.15-5.16-8.68-10.07-12.62-15.39c-6.41-8.66-11.39-19.38-9.31-29.95
		c1.76-8.94,8.28-16.18,15.31-21.97C254.39,210.35,257.19,208.27,259.96,206.16z M269.4,294.89c-2.04-1.47-0.48-4.64,1.92-3.88
		c6.66,2.09,14.71,3.32,23.38,3.32c8.67,0,16.72-1.22,23.38-3.32c2.4-0.75,3.96,2.42,1.92,3.88c-5.99,4.3-15.1,7.04-25.3,7.04
		C284.5,301.93,275.39,299.19,269.4,294.89z M320,179.21c-5.99,4.3-15.1,7.04-25.3,7.04c-10.2,0-19.31-2.74-25.3-7.04
		c-2.04-1.47-0.48-4.64,1.92-3.88c6.66,2.09,14.71,3.32,23.38,3.32c8.67,0,16.72-1.22,23.38-3.32
		C320.48,174.58,322.04,177.75,320,179.21z M306.29,162.92h-18.81c-7.82,0.53-15.4-0.08-22.89-2.73c1.15-3.41,2.67-6.7,4.54-9.78
		c8.05,4.84,18.95,5.51,26.08-0.49c0.88-0.74,1.66-1.55,2.37-2.41c0.71,0.86,1.49,1.67,2.37,2.41c6.92,5.83,17.41,5.37,25.38,0.91
		c1.73,2.92,3.16,6.01,4.25,9.22C321.96,162.82,314.24,163.46,306.29,162.92z M269.03,133.61c1.03-5.77,3.87-20.4,7.45-27.87
		c2.89-6.03,7.14-11.62,12.49-15.53c2.3-1.69,5.09-2.58,7.94-2.58h0.08c2.85,0,5.64,0.89,7.94,2.58c5.35,3.92,9.6,9.51,12.49,15.53
		c3.58,7.48,6.42,22.1,7.45,27.87c0.25,1.39-0.56,2.75-1.91,3.2l-0.05,0.02c-1.48,0.49-3.08-0.29-3.59-1.76
		c-1.25-3.61-3.45-10.09-4.46-14.01c-1.47-5.68-3.26-11.43-6.86-16.07c-2.74-3.53-6.74-6.31-11.06-7.1
		c-4.32,0.79-8.32,3.57-11.06,7.1c-3.6,4.63-5.39,10.39-6.86,16.07c-1.01,3.92-3.2,10.39-4.46,14.01c-0.51,1.47-2.11,2.25-3.59,1.76
		l-0.05-0.02C269.59,136.36,268.78,135,269.03,133.61z M213.43,160.89c10.2-1.24,20.68-0.05,30.38,3.36c1.63,0.57,1.1,3-0.61,2.87
		c-1.65-0.13-3.31-0.18-4.96-0.15c-2.43,0.04-5.17,0.39-6.13,3.2c-0.53,1.57-0.23,3.3,0.62,4.73c2.77,4.67,7.7,7.16,11.56,10.78
		c3.31,3.1,5.93,7.79,4.44,12.08c-7.06-5.17-14.12-10.34-21.18-15.51c-5.05-3.7-10.22-7.46-16.2-9.31
		c-4.47-1.39-9.54-1.53-13.83,0.16c-0.86,0.34-1.69,0.01-2.16-0.6c3.77-2.5,7.68-4.84,12.12-7.21c-1.22-0.57-2.61-1.18-4.11-1.83
		C206.53,162.03,209.99,161.31,213.43,160.89z M162.43,265.25c-0.22,4.98-1,10.73-5.25,13.34c-3.25-32.01,8.24-63.85,23.86-91.97
		c1.37-2.47,2.89-5.04,5.36-6.43c2.47-1.38,6.14-1.01,7.45,1.5c1.45,2.79-0.71,6.02-2.72,8.43c-3.28,3.94-6.53,7.99-8.59,12.68
		c-2.06,4.69-2.84,10.15-1.04,14.95c0.3,0.79,0.66,1.58,0.98,2.38c12.69,3.8,25.59,6.9,38.62,9.27c2.7,0.49,3.29,4.2,0.8,5.36
		c-0.02,0.01-0.04,0.02-0.05,0.03c-1.83,0.83-3.91,0.86-5.92,0.89c-11.53,0.15-29.39-2.86-43.34-3.12
		c-3.95,3.29-6.6,8.15-8.01,13.16C162.8,252.04,162.72,258.69,162.43,265.25z M165.8,297.57c-1.67-1.85-0.17-4.8,2.29-4.43
		c3.83,0.58,7.56,2.57,10.77,4.85c4.71,3.36,9.02,7.5,14.45,9.52c8.38,3.13,17.94,0.57,25.65-3.98c7.7-4.55,14.13-10.94,21.28-16.32
		c1.93-1.45,4.23-2.91,6.65-2.03c2.32,0.85,3.54,3.39,3.18,5.83c-0.67,4.45-4.38,6.93-7.69,9.44
		c-14.73,11.12-25.38,27.54-29.54,45.52c-1.26,5.46-1.96,11.11-4.2,16.24c-0.6,1.38-1.34,2.72-2.21,3.98
		c-0.7,1.01-1.87,1.58-3.09,1.58h-0.07c-2.49,0-4.3-2.36-3.67-4.77c1.48-5.7,2.62-11.46,2.86-17.32c0.39-9.36-1.76-19.17-7.81-26.33
		C186.85,310.13,173.68,306.31,165.8,297.57z M169.01,338.21c-0.66-1.77-1.12-4.15,0.44-5.22c1.06-0.73,2.59-0.35,3.55,0.52
		c0.95,0.87,1.47,2.11,1.97,3.3c9.7,23.24,22.88,45.02,38.92,64.43c-1.56,1.45-3.22,3.13-4.95,5
		C191.81,386.11,178.2,362.99,169.01,338.21z M216.73,470.44c-0.45,2.22-1.66,4.4-3.66,5.48c-2,1.08-4.82,0.74-6.12-1.12
		c1.31,2.5,0.46,5.92-1.86,7.52c-2.32,1.61-5.81,1.19-7.69-0.91c-0.29,2.21-0.59,4.46-1.57,6.46c-0.98,2-2.79,3.73-4.99,4.02
		c-2.21,0.29-4.67-1.29-4.8-3.52c-1,3.17-2.02,6.54-4.5,8.75c-2.48,2.21-6.95,2.53-8.78-0.25c-1.15-1.76-0.86-4.18,0.21-5.99
		c1.06-1.82,2.76-3.16,4.45-4.42c12.17-9.07,25.81-15.95,39.36-22.79C216.98,465.92,217.19,468.22,216.73,470.44z M334.09,443.19
		c-9.32,4.3-23.51,7.04-39.39,7.04c-15.88,0-30.07-2.74-39.39-7.04c-3.18-1.47-0.75-4.64,2.99-3.88c10.37,2.09,22.9,3.32,36.4,3.32
		c13.5,0,26.03-1.22,36.4-3.32C334.84,438.55,337.27,441.72,334.09,443.19z M350.59,441.16c-0.69-0.12-1.39-0.24-2.08-0.37
		c-10.26-11.92-20.53-23.84-30.79-35.75c-0.93-1.08-1.87-2.19-2.6-3.41c-5.51,2.82-12.64,4.53-20.43,4.53
		c-7.39,0-14.19-1.54-19.58-4.11c-0.68,1.05-1.51,2.03-2.33,2.99c-10.26,11.92-20.53,23.84-30.79,35.75
		c-0.69,0.12-1.39,0.24-2.08,0.37c-2.79-3.01-0.56-7.83,1.73-11.24c5-7.44,10-14.88,15-22.33c2.53-3.76,5.14-7.77,5.35-12.3
		c0.28-5.99-3.68-11.26-7.43-15.93c3.86-2.37,8.36-3.69,12.89-3.79c0.08,4.39,2.97,8.15,5.44,11.78c1.87,2.75,3.62,5.95,3.79,9.17
		c5.42,1.29,11.54,2.03,18.02,2.03c6.94,0,13.45-0.85,19.15-2.31c0.25-3.12,1.95-6.22,3.77-8.88c2.47-3.63,5.36-7.39,5.44-11.78
		c4.53,0.09,9.03,1.42,12.89,3.79c-3.75,4.68-7.71,9.94-7.43,15.93c0.21,4.52,2.82,8.54,5.35,12.3c5,7.44,10,14.88,15,22.33
		C351.16,433.33,353.38,438.15,350.59,441.16z M359.53,371.82c-10.15-0.28-20.27-1.21-30.3-2.77c-8.7-1.36-18.62-4.21-21.97-12.36
		c-2.4-5.84-0.49-12.51,1.86-18.37c1.91-4.74,4.1-9.37,6.56-13.86c1.05-1.91,4-0.91,3.65,1.25c-0.45,2.79-1.18,5.58-1.76,8.34
		c-1.13,5.34-1.65,11.24,1.12,15.94c3.43,5.8,10.66,7.89,17.21,9.49c8.75,2.14,17.5,4.27,26.25,6.41c1.37,0.33,2.46,1.48,2.53,2.89
		C364.8,371.34,361.79,371.88,359.53,371.82z M364.13,419.42c0.32-0.51,0.7-0.98,1.11-1.43
		C364.9,418.45,364.53,418.93,364.13,419.42z M422.31,490.87c1.06,1.82,1.36,4.23,0.21,5.99c-1.82,2.78-6.29,2.46-8.78,0.25
		c-2.48-2.21-3.51-5.58-4.5-8.75c-0.14,2.22-2.6,3.81-4.8,3.52c-2.21-0.29-4.01-2.02-4.99-4.02c-0.98-2-1.28-4.25-1.57-6.46
		c-1.88,2.1-5.37,2.52-7.69,0.91c-2.32-1.61-3.16-5.02-1.86-7.52c-1.3,1.86-4.12,2.2-6.12,1.12c-2-1.08-3.21-3.26-3.66-5.48
		c-0.45-2.22-0.25-4.52-0.05-6.78c13.56,6.83,27.19,13.71,39.36,22.79C419.55,487.71,421.25,489.05,422.31,490.87z M425.19,338.21
		c-9.1,24.53-22.53,47.43-39.4,67.42c-1.75-1.87-3.43-3.55-5-4.96c15.82-19.27,28.84-40.85,38.45-63.86c0.5-1.19,1.01-2.43,1.97-3.3
		c0.95-0.87,2.48-1.25,3.55-0.52C426.31,334.06,425.84,336.44,425.19,338.21z M426.52,297.48c-7.87,8.81-21.11,12.62-28.92,21.88
		c-6.04,7.16-8.19,16.97-7.81,26.33c0.24,5.87,1.39,11.63,2.86,17.32c0.63,2.41-1.18,4.77-3.67,4.77h-0.07
		c-1.22,0-2.39-0.58-3.09-1.58c-0.87-1.25-1.61-2.6-2.21-3.98c-2.24-5.14-2.94-10.79-4.2-16.24c-4.16-17.99-14.81-34.4-29.54-45.52
		c-3.31-2.5-7.03-4.99-7.69-9.44c-0.37-2.45,0.85-4.98,3.18-5.83c2.41-0.88,4.71,0.57,6.65,2.03c7.15,5.38,13.58,11.77,21.28,16.32
		c7.7,4.55,17.26,7.11,25.65,3.98c5.42-2.02,9.73-6.16,14.45-9.52c3.21-2.29,6.95-4.28,10.77-4.85
		C426.55,292.77,428.14,295.66,426.52,297.48z M437.01,278.59c-4.24-2.61-5.03-8.36-5.25-13.34c-0.29-6.56-0.37-13.21-2.15-19.53
		c-1.3-4.64-3.67-9.14-7.15-12.4c-14.48-0.27-34.21,1.99-46.16,1.83c-2.01-0.03-4.09-0.05-5.92-0.89c-0.02-0.01-0.04-0.02-0.05-0.03
		c-2.48-1.16-1.9-4.87,0.8-5.36c13.89-2.52,27.63-5.87,41.12-10.01c0.16-0.37,0.31-0.74,0.45-1.11c1.8-4.8,1.02-10.26-1.04-14.95
		c-2.06-4.69-5.31-8.74-8.59-12.68c-2.01-2.41-4.16-5.64-2.72-8.43c1.3-2.51,4.98-2.88,7.45-1.5c2.47,1.38,3.99,3.95,5.36,6.43
		C428.77,214.74,440.26,246.58,437.01,278.59z M457.8,148.24c1.95-0.91,3.99-1.61,6.1-2.01c4.68-0.89,9.84-0.16,13.59,2.78
		c3.85,3.01,5.74,7.82,7.47,12.4c5.02,13.32,10.05,26.65,15.07,39.97c1.61,4.27,3.11,9.44,0.36,13.08
		c-5.24-9.26-7.93-19.68-11.43-29.73c-3.49-10.04-8.06-20.13-16.03-27.16c-4.05-3.57-9.35-6.23-14.62-6.56
		C456.82,150.92,456.43,148.87,457.8,148.24z M507.11,285.87c-2.19,1.81-5.6,0.21-6.91-2.42c-1.31-2.62-1.13-5.78-0.91-8.76
		c-1.61,2.23-4.85,2.52-7.12,1.12c-2.27-1.4-3.63-4.13-4.15-6.9c-0.51-2.78-0.29-5.64-0.06-8.46c-2.17,1.78-5.54-0.17-6.48-2.94
		c-0.94-2.77-0.22-5.84,0.5-8.68c-1.52,2.1-4.98,0.69-5.86-1.8c-0.88-2.49-0.06-5.28,0.75-7.8c-1.28,1.32-3.61,0.64-4.55-0.98
		c-0.94-1.62-0.76-3.76-0.09-5.53c0.67-1.77,1.76-3.32,2.63-4.98c7.58,13.88,15.26,27.91,25.67,39.44
		c3.45,3.81,7.38,7.75,8.14,13.02C508.98,282.26,508.63,284.62,507.11,285.87z"/>
	<path class="st0" d="M162.43,542.35c1.24,6.84-1.69,14.88-8.16,17.43c1.96-7.76-1.49-15.95-6.36-22.3
		c-4.88-6.35-11.16-11.49-16.18-17.72c-12.52-15.54-16.07-37.83-9-56.49c5.98-15.78,19.01-29.63,18.6-46.5
		c-0.24-9.75-5.07-18.75-10.22-27.03c-5.15-8.28-10.86-16.49-13.21-25.96c-2.35-9.47-0.52-20.74,7.22-26.67
		c-3.12,15.63,7.68,30.35,18.28,42.25c10.6,11.9,22.4,25.23,21.77,41.16c-0.5,12.68-8.85,23.45-15.88,34.02
		c-10.62,15.96-18.99,36.76-10.19,53.8c3.19,6.18,8.32,11.08,12.98,16.23C156.77,529.7,161.19,535.51,162.43,542.35z M107.91,459.42
		c5.82-14.31,4.63-31.29-3.14-44.65c-5.47-9.42-13.96-17.06-17.95-27.2c-4.94-12.57-1.6-27.97,8.11-37.37
		c-3.48,12.87,1.53,26.49,7.9,38.2c6.37,11.71,14.3,22.9,17.31,35.89C123.16,437.28,119.64,453.08,107.91,459.42z M474.09,463.26
		c7.07,18.66,3.52,40.95-8.99,56.49c-5.02,6.23-11.3,11.38-16.18,17.72c-4.88,6.35-8.33,14.54-6.36,22.3
		c-6.47-2.55-9.39-10.59-8.16-17.43c1.24-6.84,5.66-12.64,10.33-17.79c4.67-5.15,9.79-10.06,12.98-16.23
		c8.8-17.03,0.43-37.83-10.19-53.8c-7.03-10.57-15.38-21.34-15.88-34.02c-0.63-15.93,11.17-29.26,21.77-41.16
		c10.6-11.9,21.4-26.62,18.28-42.25c7.74,5.94,9.57,17.21,7.22,26.67c-2.35,9.47-8.05,17.68-13.21,25.96
		c-5.15,8.28-9.98,17.28-10.22,27.03C455.08,433.63,468.11,447.48,474.09,463.26z M501.89,350.21c9.71,9.4,13.05,24.79,8.11,37.37
		c-3.98,10.14-12.47,17.78-17.95,27.2c-7.77,13.36-8.96,30.33-3.14,44.65c-11.73-6.33-15.25-22.14-12.24-35.13
		c3.01-12.99,10.94-24.18,17.31-35.89C500.36,376.69,505.38,363.08,501.89,350.21z"/>
</g>
</svg>
